<?xml version="1.0" standalone="no"?>
<!DOCTYPE svg PUBLIC "-//W3C//DTD SVG 20010904//EN"
 "http://www.w3.org/TR/2001/REC-SVG-20010904/DTD/svg10.dtd">
<svg version="1.0" xmlns="http://www.w3.org/2000/svg"
 width="30px" height="30px" viewBox="0 0 512.000000 512.000000"
 preserveAspectRatio="xMidYMid meet">

<g transform="translate(0.000000,512.000000) scale(0.100000,-0.100000)"
fill="#000000" stroke="none">
<path d="M0 2560 l0 -1730 165 0 165 0 2 448 3 447 2225 0 2225 0 3 -442 2
-443 165 0 165 0 0 835 0 835 -2395 0 -2395 0 0 890 0 890 -165 0 -165 0 0
-1730z"/>
<path d="M811 3520 c-120 -18 -259 -116 -323 -227 -104 -181 -70 -422 79 -564
92 -88 194 -129 323 -129 96 0 167 19 241 65 255 158 298 512 87 724 -105 105
-256 154 -407 131z"/>
<path d="M1830 3500 c-109 -19 -203 -92 -242 -189 -22 -53 -23 -71 -26 -373
l-3 -318 1670 0 1671 0 0 263 c0 144 -5 293 -10 330 -20 136 -84 223 -199 269
l-56 23 -1380 1 c-759 1 -1400 -2 -1425 -6z"/>
</g>
</svg>
