<?xml version="1.0" standalone="no"?>
<!DOCTYPE svg PUBLIC "-//W3C//DTD SVG 20010904//EN"
 "http://www.w3.org/TR/2001/REC-SVG-20010904/DTD/svg10.dtd">
<svg version="1.0" xmlns="http://www.w3.org/2000/svg"
 width="40px" height="40px" viewBox="0 0 512.000000 512.000000"
 preserveAspectRatio="xMidYMid meet">

<g transform="translate(0.000000,512.000000) scale(0.100000,-0.100000)"
fill="#494681" stroke="none">
<path d="M3519 5105 c-144 -29 -268 -96 -373 -201 -90 -90 -140 -173 -189
-316 -6 -17 -82 -18 -1410 -18 l-1403 0 -44 -22 c-124 -63 -132 -227 -17 -312
l28 -21 1418 -3 1418 -2 27 -74 c54 -146 175 -294 310 -375 155 -93 365 -125
537 -82 221 55 389 189 484 386 23 50 48 102 53 117 l11 27 320 3 c306 3 321
4 348 24 115 85 107 249 -17 312 -43 21 -53 22 -351 22 l-306 0 -12 43 c-23
77 -92 195 -153 262 -178 194 -430 280 -679 230z"/>
<path d="M1134 3275 c-78 -17 -168 -53 -241 -96 -115 -70 -247 -228 -289 -349
-36 -101 -5 -90 -251 -90 -207 0 -220 -1 -258 -23 -122 -69 -125 -241 -5 -311
32 -19 56 -21 258 -26 l223 -5 33 -83 c43 -106 93 -182 171 -257 227 -218 564
-266 845 -119 160 83 291 237 349 407 l18 52 1504 5 c1495 5 1504 5 1539 26
117 68 117 240 0 308 -35 21 -44 21 -1538 26 l-1503 5 -33 83 c-95 235 -286
395 -534 447 -83 18 -207 18 -288 0z"/>
<path d="M3110 1436 c-234 -62 -417 -227 -499 -448 l-27 -73 -1236 -5 c-1235
-5 -1237 -5 -1265 -26 -115 -85 -107 -249 17 -311 l44 -23 1221 0 1220 0 23
-67 c67 -191 237 -364 428 -435 383 -142 813 61 943 445 l18 52 499 5 c481 5
500 6 534 26 114 67 118 226 7 308 -28 20 -41 21 -534 26 l-506 5 -16 50
c-118 359 -506 569 -871 471z"/>
</g>
</svg>
