<?xml version="1.0" standalone="no"?>
<!DOCTYPE svg PUBLIC "-//W3C//DTD SVG 20010904//EN"
 "http://www.w3.org/TR/2001/REC-SVG-20010904/DTD/svg10.dtd">
<svg version="1.0" xmlns="http://www.w3.org/2000/svg"
 width="40px" height="40px" viewBox="0 0 512.000000 512.000000"
 preserveAspectRatio="xMidYMid meet">

<g transform="translate(0.000000,512.000000) scale(0.100000,-0.100000)"
fill="#ffffff" stroke="none">
<path d="M2630 5109 c-277 -54 -426 -391 -283 -637 146 -252 501 -289 695 -74
128 142 146 359 44 520 -94 149 -277 226 -456 191z"/>
<path d="M1482 4753 c-19 -9 -44 -32 -58 -52 l-24 -36 0 -995 c0 -1066 -1
-1029 50 -1131 50 -96 187 -199 289 -215 50 -8 56 -15 37 -51 -7 -15 -73 -253
-146 -528 -72 -275 -135 -504 -138 -510 -3 -5 -138 -188 -300 -405 -162 -217
-304 -413 -315 -435 -30 -57 -30 -174 0 -230 52 -98 171 -165 266 -150 63 11
131 43 164 78 44 46 642 852 669 901 12 23 61 189 109 370 48 181 90 337 93
346 7 16 108 -72 446 -388 l49 -46 -32 -470 c-35 -519 -36 -564 -17 -619 43
-119 175 -193 300 -167 96 20 174 89 204 180 7 19 30 298 52 620 43 623 43
629 -2 705 -12 21 -141 147 -287 282 -146 135 -265 250 -264 256 48 332 150
977 154 977 3 0 52 -65 108 -145 109 -154 149 -200 190 -218 18 -8 160 -14
451 -17 l425 -5 8 -1270 c4 -698 10 -1284 13 -1302 7 -45 33 -73 76 -80 32 -5
41 -1 68 26 l31 31 -7 1309 -7 1309 30 16 c37 19 90 96 99 143 18 94 -29 190
-115 235 l-53 28 -403 0 -403 0 -211 300 -211 300 -4 78 c-7 179 -97 320 -251
393 -139 65 -307 53 -424 -31 -16 -11 -31 -20 -34 -20 -3 0 -7 120 -9 268 -3
296 -6 308 -70 354 -32 23 -39 23 -298 26 -230 2 -269 0 -298 -15z"/>
</g>
</svg>
