<?xml version="1.0" standalone="no"?>
<!DOCTYPE svg PUBLIC "-//W3C//DTD SVG 20010904//EN"
 "http://www.w3.org/TR/2001/REC-SVG-20010904/DTD/svg10.dtd">
<svg version="1.0" xmlns="http://www.w3.org/2000/svg"
 width="30px" height="30px" viewBox="0 0 512.000000 512.000000"
 preserveAspectRatio="xMidYMid meet">

<g transform="translate(0.000000,512.000000) scale(0.100000,-0.100000)"
fill="#62DDF5" stroke="none">
<path d="M4565 5086 c-206 -85 -418 -206 -565 -323 -79 -64 -215 -198 -275
-273 -212 -262 -315 -595 -285 -919 19 -207 55 -340 150 -561 76 -177 93 -243
88 -346 -3 -65 -9 -90 -32 -127 -80 -138 -307 -285 -621 -403 l-140 -52 -192
-394 c-105 -216 -190 -394 -189 -395 3 -3 269 92 355 126 30 12 57 18 61 14
13 -13 93 -203 89 -208 -18 -18 -558 -232 -631 -250 -15 -4 -31 -12 -37 -18
-15 -20 -453 -928 -449 -933 8 -8 406 150 631 250 564 252 1070 555 1415 848
91 77 274 264 348 354 478 586 520 1241 119 1814 -29 41 -78 105 -108 142
-140 171 -198 302 -205 468 -10 244 100 476 346 731 88 91 241 227 311 276 3
2 -5 24 -17 48 l-22 45 -62 -37 c-35 -20 -82 -49 -106 -66 -42 -28 -44 -28
-57 -10 -18 23 -13 27 113 95 50 27 92 52 92 54 0 6 -40 84 -43 84 -1 -1 -38
-16 -82 -34z m-467 -578 c-99 -117 -184 -260 -226 -383 -25 -73 -52 -212 -52
-266 l0 -39 -51 0 -52 0 7 75 c20 223 145 476 335 678 l35 37 25 -24 24 -24
-45 -54z m-58 -1318 c109 -181 159 -297 191 -445 10 -49 19 -112 19 -138 l0
-48 -77 3 -78 3 -7 85 c-13 159 -51 266 -183 509 -47 87 -85 163 -85 169 0 7
24 23 53 36 l52 23 29 -51 c16 -28 55 -94 86 -146z m-4 -1076 l73 -45 -48 -67
c-100 -138 -226 -265 -371 -376 -59 -46 -236 -166 -244 -166 -6 0 -106 169
-106 180 0 4 42 33 94 63 184 111 373 269 473 400 24 31 47 57 50 57 4 0 39
-20 79 -46z"/>
<path d="M1560 4274 c-353 -44 -604 -165 -830 -400 -358 -373 -460 -923 -258
-1399 71 -169 1192 -2465 1199 -2458 9 9 1027 2104 1144 2353 114 244 148 390
148 620 -1 204 -39 371 -128 555 -176 363 -511 625 -905 705 -96 20 -299 33
-370 24z m285 -599 c318 -83 538 -367 538 -695 0 -384 -291 -693 -673 -717
-329 -20 -631 191 -732 511 -10 34 -22 106 -25 161 -8 137 13 240 75 365 38
79 61 109 132 180 47 47 110 100 142 118 65 39 172 78 249 91 70 13 218 6 294
-14z"/>
</g>
</svg>
