<svg xmlns="http://www.w3.org/2000/svg" width="700pt" height="700pt" version="1.1" viewBox="0 0 700 700">
 <g>
  <path d="m393.34 235.16c-2.2852 0.027344-4.4688 0.94531-6.082 2.5625l-227.12 227.4 12.375 12.371 220.94-221.21 177.84 178.66 12.406-12.34-184.02-184.88v0.003906c-1.6758-1.6758-3.957-2.6016-6.3242-2.5625z" fill-rule="evenodd" fill="#137519"/>
  <path d="m524.45 368.43c-2.2773 0.074219-4.4336 1.0312-6.0156 2.668l-37.527 37.461-37.562-37.461h-0.003906c-3.418-3.4141-8.9531-3.4141-12.371 0l-37.527 37.461-37.531-37.461c-3.418-3.4141-8.957-3.4141-12.375 0l-37.527 37.496-15.758-15.723c-1.6055-1.793-3.8789-2.8477-6.2852-2.9141-2.4062-0.0625-4.7305 0.86719-6.4336 2.5703-1.6992 1.7031-2.6211 4.0312-2.5508 6.4375 0.074219 2.4062 1.1328 4.6758 2.9297 6.2773l21.91 21.875c3.418 3.4141 8.957 3.4141 12.375 0l37.527-37.461 37.527 37.461h0.003906c3.4141 3.4141 8.9531 3.4141 12.371 0l37.527-37.461 37.562 37.461h0.003906c3.4141 3.3945 8.9258 3.3945 12.336 0l43.75-43.648v0.003906c2.6016-2.5156 3.3906-6.3711 1.9805-9.7031-1.4062-3.332-4.7188-5.4531-8.3359-5.3398z" fill-rule="evenodd" fill="#137519"/>
  <path d="m271.01 270.16c-2.2891 0.035156-4.4766 0.96484-6.0859 2.5938l-148.65 149.84 12.406 12.34 142.46-143.66 37.562 37.531 12.371-12.375-43.785-43.715h0.007812c-1.668-1.668-3.9336-2.5898-6.2891-2.5625z" fill-rule="evenodd" fill="#137519"/>
  <path d="m385.07 86.406v157.4h17.5v-157.4z" fill-rule="evenodd" fill="#137519"/>
  <path d="m178.93 366.23c-3.5469 0.011719-6.7383 2.1719-8.0703 5.4609-1.3359 3.2891-0.55078 7.0586 1.9883 9.543l26.25 26.25c1.6289 1.6992 3.8711 2.668 6.2227 2.6953 2.3555 0.023437 4.6172-0.89844 6.2812-2.5625 1.6641-1.6641 2.5859-3.9297 2.5625-6.2812-0.023437-2.3516-0.99609-4.5977-2.6953-6.2266l-26.25-26.25c-1.6523-1.6914-3.9219-2.6406-6.2891-2.6289z" fill-rule="evenodd" fill="#137519"/>
  <path d="m393.75 81.961c-4.207-0.023438-7.8398 2.9492-8.6406 7.082-0.80469 4.1328 1.4492 8.25 5.3594 9.8008l107.32 44.398-107.32 44.434v0.003907c-2.1797 0.86328-3.9219 2.5664-4.8359 4.7227-0.91406 2.1602-0.92187 4.5977-0.023437 6.7617 0.89844 2.1641 2.625 3.8828 4.7969 4.7617 2.1758 0.87891 4.6094 0.85156 6.7617-0.082031l126.88-52.5c3.2695-1.3555 5.3984-4.543 5.3984-8.082 0-3.5391-2.1289-6.7266-5.3984-8.082l-126.88-52.5c-1.0781-0.46875-2.2422-0.71094-3.418-0.71484z" fill-rule="evenodd" fill="#137519"/>
  <path d="m520.56 134.39c-2.3242 0.035157-4.5352 0.99219-6.1484 2.6562-1.6172 1.668-2.5039 3.9062-2.4648 6.2305v48.125c-0.035156 2.3398 0.87109 4.5977 2.5156 6.2656 1.6445 1.668 3.8906 2.6055 6.2344 2.6055 2.3398 0 4.5859-0.9375 6.2305-2.6055s2.5508-3.9258 2.5195-6.2656v-48.125c0.035157-2.3711-0.89062-4.6523-2.5625-6.3281-1.6758-1.6719-3.957-2.5977-6.3242-2.5586z" fill-rule="evenodd" fill="#137519"/>
  <path d="m459.41 160.71c-4.2148-0.042969-7.8633 2.9258-8.6758 7.0625-0.8125 4.1367 1.4414 8.2656 5.3594 9.8203l29.602 12.34v53.973c0.003907 2.9492 1.4961 5.7031 3.9727 7.3164 2.4727 1.6094 5.5938 1.8672 8.2969 0.67969l70-30.625c3.1914-1.4141 5.2383-4.5898 5.207-8.0781s-2.1328-6.6289-5.3477-7.9844l-105-43.75c-1.0781-0.48047-2.2383-0.73438-3.418-0.75391zm43.785 36.504 38.965 16.238-38.965 17.055z" fill-rule="evenodd" fill="#137519"/>
  <path d="m350 0c-154.54 0-280 125.46-280 280s125.46 280 280 280 280-125.46 280-280-125.46-280-280-280zm0 17.5c145.08 0 262.5 117.42 262.5 262.5s-117.42 262.5-262.5 262.5-262.5-117.42-262.5-262.5 117.42-262.5 262.5-262.5z" fill="#137519"/>
  <path d="m223.12 131.25c-24.066 0-43.785 19.684-43.785 43.75s19.719 43.785 43.785 43.785 43.75-19.719 43.75-43.785-19.684-43.75-43.75-43.75zm0 17.535c14.594 0 26.215 11.625 26.215 26.215 0 14.594-11.621 26.25-26.215 26.25s-26.25-11.656-26.25-26.25 11.656-26.215 26.25-26.215z" fill="#137519"/>
  <path d="m214.38 100.62v17.5h17.5v-17.5z" fill-rule="evenodd" fill="#137519"/>
  <path d="m214.38 231.88v17.5h17.5v-17.5z" fill-rule="evenodd" fill="#137519"/>
  <path d="m280 166.25v17.5h17.5v-17.5z" fill-rule="evenodd" fill="#137519"/>
  <path d="m148.75 166.25v17.5h17.5v-17.5z" fill-rule="evenodd" fill="#137519"/>
  <path d="m176.71 116.24-12.371 12.371 12.371 12.371 12.371-12.371z" fill-rule="evenodd" fill="#137519"/>
  <path d="m269.51 209.04-12.371 12.371 12.371 12.375 12.375-12.375z" fill-rule="evenodd" fill="#137519"/>
  <path d="m269.51 116.24-12.371 12.371 12.371 12.371 12.375-12.371z" fill-rule="evenodd" fill="#137519"/>
  <path d="m176.71 209.04-12.371 12.371 12.371 12.375 12.371-12.375z" fill-rule="evenodd" fill="#137519"/>
 </g>
</svg>