<?xml version="1.0" encoding="iso-8859-1"?>
<svg version="1.1"  width="40" height="40" id="Layer_1" xmlns="http://www.w3.org/2000/svg" xmlns:xlink="http://www.w3.org/1999/xlink" x="0px" y="0px"
	 viewBox="0 0 512.004 512.004" style="enable-background:new 0 0 512.004 512.004;" xml:space="preserve">
<g>
	<path style="fill:#507C5C;" d="M211.35,462.824H13.832c-4.632,0-8.957-2.318-11.52-6.177c-2.564-3.858-3.026-8.742-1.231-13.013
		L155.149,76.972c5.109-12.804,17.295-21.067,31.093-21.067c13.863-0.001,26.096,8.336,31.167,21.238l55.386,140.985
		c2.794,7.111-0.707,15.137-7.816,17.931c-7.112,2.795-15.137-0.707-17.931-7.816L191.662,87.258
		c-1.261-3.212-3.936-3.693-5.418-3.692c-1.481,0-4.155,0.48-5.416,3.692c-0.039,0.101-0.08,0.202-0.123,0.302L34.647,435.161
		H211.35c7.638,0,13.832,6.194,13.832,13.832S218.987,462.824,211.35,462.824z"/>
	<path style="fill:#507C5C;" d="M498.169,462.824H204.374c-4.786,0-9.231-2.474-11.754-6.541c-2.523-4.065-2.764-9.148-0.638-13.436
		l128.891-259.866c5.537-12,17.159-19.444,30.4-19.444c0,0,0,0,0.001,0c13.334,0.001,25.025,7.549,30.514,19.7
		c3.144,6.961,0.05,15.154-6.912,18.298c-6.966,3.144-15.154,0.048-18.298-6.912c-1.346-2.978-3.901-3.425-5.304-3.425
		s-3.959,0.445-5.306,3.426c-0.069,0.151-0.141,0.303-0.213,0.451l-119.08,240.084h249.196l-47.28-95.323
		c-3.394-6.842-0.598-15.143,6.246-18.537c6.844-3.396,15.143-0.598,18.537,6.246l57.188,115.3
		c2.126,4.288,1.885,9.369-0.638,13.436C507.4,460.349,502.955,462.824,498.169,462.824z"/>
</g>
<path style="fill:#CFF09E;" d="M123.471,188.067l44.484-105.865c6.53-16.621,30.052-16.621,36.582,0l28.461,72.448l-17.821,58.754
	l-30.62-36.035l-36.997,53.044L123.471,188.067z"/>
<path style="fill:#507C5C;" d="M147.561,244.245c-0.212,0-0.425-0.006-0.636-0.015c-4.743-0.217-9.04-2.852-11.388-6.978
	l-24.089-42.347c-2.122-3.732-2.391-8.238-0.728-12.197l44.427-105.733c5.108-12.807,17.296-21.071,31.097-21.071c0.001,0,0,0,0,0
	c13.862,0,26.096,8.336,31.165,21.238l28.461,72.45c1.138,2.898,1.266,6.093,0.362,9.072l-17.821,58.755
	c-1.469,4.844-5.466,8.498-10.421,9.529c-4.963,1.028-10.079-0.73-13.354-4.585l-19-22.361l-26.732,38.327
	C156.311,242.044,152.069,244.245,147.561,244.245z M138.86,187.147l9.89,17.383l24.464-35.074
	c2.454-3.519,6.401-5.699,10.686-5.903c4.261-0.205,8.422,1.589,11.199,4.859l14.204,16.714l9.067-29.891l-26.705-67.977
	c-1.261-3.212-3.936-3.692-5.418-3.692s-4.155,0.48-5.416,3.692c-0.039,0.101-0.08,0.202-0.123,0.302L138.86,187.147z"/>
<path style="fill:#CFF09E;" d="M281.207,294.084l52.596-102.594c8.311-16.327,28.617-16.009,36.582,0l35.986,72.421l-25.344,58.781
	l-30.62-36.035l-36.997,53.044L281.207,294.084z"/>
<g>
	<path style="fill:#507C5C;" d="M313.41,353.535c-4.494,0-8.707-2.183-11.3-5.855l-32.203-45.618
		c-2.968-4.203-3.356-9.708-1.008-14.287l52.596-102.594c6.256-12.289,17.711-19.648,30.624-19.648
		c12.83,0,24.576,7.585,30.649,19.797l35.988,72.426c1.811,3.643,1.925,7.896,0.315,11.631l-25.344,58.781
		c-1.894,4.393-5.921,7.495-10.653,8.203c-4.721,0.708-9.49-1.076-12.588-4.722l-19-22.362l-26.731,38.327
		c-2.578,3.697-6.798,5.907-11.306,5.919C313.436,353.535,313.424,353.535,313.41,353.535z M297.333,292.946l16.007,22.677
		l25.721-36.876c2.454-3.519,6.401-5.699,10.686-5.903c4.275-0.214,8.422,1.589,11.199,4.859l16.198,19.061l13.985-32.439
		L358,197.646c-1.407-2.826-3.549-4.451-5.88-4.451c-2.328,0-4.512,1.667-5.989,4.571L297.333,292.946z"/>
	<path style="fill:#507C5C;" d="M351.272,185.421c-7.638,0-13.832-6.194-13.832-13.832v-62.242c0-7.638,6.194-13.832,13.832-13.832
		c7.638,0,13.832,6.194,13.832,13.832v62.242C365.104,179.227,358.91,185.421,351.272,185.421z"/>
</g>
<polygon style="fill:#CFF09E;" points="447.104,128.02 351.272,128.02 351.272,63.011 447.104,63.011 425.208,95.516 "/>
<path style="fill:#507C5C;" d="M447.132,141.851c-0.008,0-0.021,0-0.028,0h-95.832c-7.638,0-13.832-6.194-13.832-13.832V63.011
	c0-7.638,6.194-13.832,13.832-13.832h95.832c5.112,0,9.809,2.82,12.211,7.335c2.401,4.515,2.118,9.985-0.739,14.224l-16.691,24.776
	l16.248,24.119c1.775,2.326,2.83,5.232,2.83,8.386C460.964,135.658,454.771,141.851,447.132,141.851z M365.104,114.188h56.005
	l-7.374-10.945c-3.145-4.671-3.145-10.784,0-15.455l7.374-10.945h-56.005V114.188z"/>
<g>
</g>
<g>
</g>
<g>
</g>
<g>
</g>
<g>
</g>
<g>
</g>
<g>
</g>
<g>
</g>
<g>
</g>
<g>
</g>
<g>
</g>
<g>
</g>
<g>
</g>
<g>
</g>
<g>
</g>
</svg>
