<?xml version="1.0" standalone="no"?>
<!DOCTYPE svg PUBLIC "-//W3C//DTD SVG 20010904//EN"
 "http://www.w3.org/TR/2001/REC-SVG-20010904/DTD/svg10.dtd">
<svg version="1.0" xmlns="http://www.w3.org/2000/svg"
 width="30px" height="30px" viewBox="0 0 512.000000 512.000000"
 preserveAspectRatio="xMidYMid meet">

<g transform="translate(0.000000,512.000000) scale(0.100000,-0.100000)"
fill="#62DDF5" stroke="none">
<path d="M2375 5109 c-441 -59 -813 -324 -1009 -717 -147 -293 -197 -714 -126
-1047 111 -516 530 -1258 1106 -1960 106 -130 129 -152 171 -166 86 -28 129 5
312 234 647 813 1041 1576 1079 2091 23 301 -36 606 -165 859 -182 356 -504
600 -908 688 -105 23 -353 33 -460 18z m285 -905 c252 -57 406 -320 330 -565
-38 -125 -117 -217 -239 -277 -73 -36 -77 -37 -191 -37 -114 0 -118 1 -191 37
-283 140 -348 495 -130 718 62 64 132 104 219 124 76 19 120 19 202 0z"/>
<path d="M2516 3910 c-87 -27 -129 -128 -88 -210 69 -139 282 -85 282 71 0 90
-106 166 -194 139z"/>
<path d="M972 2379 c-18 -12 -41 -38 -51 -58 -37 -72 -633 -1472 -629 -1476 2
-2 339 167 750 377 l746 380 -133 197 c-123 183 -274 426 -340 549 l-28 52
-141 0 c-126 0 -144 -3 -174 -21z"/>
<path d="M3805 2348 c-174 -324 -539 -855 -819 -1189 -117 -140 -158 -177
-240 -215 -175 -80 -373 -41 -510 99 -45 46 -225 263 -262 315 -2 3 -251 -125
-264 -135 -2 -2 225 -233 505 -514 345 -344 515 -508 526 -506 14 4 1929 994
1936 1001 3 3 -460 1083 -482 1126 -8 15 -30 38 -48 49 -31 19 -50 21 -174 21
l-140 0 -28 -52z"/>
<path d="M755 739 l-660 -338 -47 -108 c-26 -59 -48 -123 -48 -141 0 -51 35
-109 80 -132 39 -20 56 -20 1160 -20 l1121 0 39 23 c22 12 40 24 40 27 0 3
-231 235 -512 516 l-513 511 -660 -338z"/>
<path d="M3908 465 l-888 -460 990 -3 c976 -2 991 -2 1030 18 45 23 80 80 80
131 0 26 -270 675 -314 754 -10 20 -55 -2 -898 -440z"/>
</g>
</svg>
