<?xml version="1.0" standalone="no"?>
<!DOCTYPE svg PUBLIC "-//W3C//DTD SVG 20010904//EN"
 "http://www.w3.org/TR/2001/REC-SVG-20010904/DTD/svg10.dtd">
<svg version="1.0" xmlns="http://www.w3.org/2000/svg"
 width="30px" height="30px" viewBox="0 0 512.000000 512.000000"
 preserveAspectRatio="xMidYMid meet">

<g transform="translate(0.000000,512.000000) scale(0.100000,-0.100000)"
fill="#62DDF5" stroke="none">
<path d="M2188 3516 c-247 -370 -448 -678 -448 -684 0 -11 875 -545 894 -545
6 0 145 99 310 221 l299 221 101 -78 c87 -67 1471 -1119 1564 -1189 23 -18
-191 311 -681 1049 l-715 1074 -233 3 -234 3 -199 299 c-110 165 -202 300
-205 300 -3 0 -207 -303 -453 -674z"/>
<path d="M615 1848 l-614 -923 1511 -3 c831 -1 1513 -1 1515 1 5 6 -494 1059
-509 1073 -18 18 -1268 774 -1279 774 -5 0 -286 -415 -624 -922z"/>
<path d="M3044 2209 c-104 -77 -195 -143 -202 -148 -9 -5 61 -162 255 -574
l268 -567 874 0 c780 0 874 2 860 15 -21 21 -1853 1415 -1860 1415 -3 0 -90
-63 -195 -141z"/>
</g>
</svg>
