<?xml version="1.0" standalone="no"?>
<!DOCTYPE svg PUBLIC "-//W3C//DTD SVG 20010904//EN"
 "http://www.w3.org/TR/2001/REC-SVG-20010904/DTD/svg10.dtd">
<svg version="1.0" xmlns="http://www.w3.org/2000/svg"
 width="45px" height="45px" viewBox="0 0 512.000000 512.000000"
 preserveAspectRatio="xMidYMid meet">

<g transform="translate(0.000000,512.000000) scale(0.100000,-0.100000)"
fill="#4D4DFF" stroke="none">
<path d="M3872 4410 c-105 -22 -184 -101 -203 -204 -6 -35 -9 -239 -7 -554 3
-453 5 -501 21 -537 25 -55 73 -103 132 -131 48 -23 60 -24 268 -24 l217 0 0
-1089 0 -1088 26 -27 c19 -18 37 -26 63 -26 48 0 78 22 91 68 6 24 10 399 10
1100 l0 1062 208 0 c238 0 277 8 340 69 81 78 77 48 77 661 0 542 0 545 -22
586 -12 22 -39 56 -59 74 -77 67 -56 65 -614 67 -278 1 -524 -3 -548 -7z m699
-304 c49 -18 111 -73 135 -118 35 -68 33 -222 -5 -297 -49 -94 -132 -131 -311
-138 -99 -4 -128 -8 -137 -21 -9 -11 -13 -57 -13 -144 0 -148 0 -148 -99 -148
-97 0 -91 -31 -91 449 0 320 3 420 13 430 20 20 447 10 508 -13z"/>
<path d="M4257 3956 c-13 -14 -17 -36 -17 -107 0 -125 3 -129 98 -129 94 1
149 12 175 38 25 25 34 101 17 142 -18 44 -59 61 -164 67 -78 5 -94 3 -109
-11z"/>
<path d="M843 3551 c-65 -24 -127 -66 -180 -123 -52 -58 -48 -49 -164 -331
-54 -132 -101 -242 -104 -245 -3 -3 -45 5 -93 19 -222 62 -302 11 -302 -192 0
-70 5 -104 19 -135 26 -57 83 -101 149 -115 44 -9 52 -14 46 -27 -30 -67 -76
-226 -93 -321 -20 -106 -21 -154 -21 -668 0 -601 -1 -590 56 -647 50 -50 86
-59 240 -64 171 -5 241 7 290 50 62 54 68 77 74 243 l5 150 1128 3 1127 2 0
-127 c0 -71 5 -144 10 -164 16 -56 51 -101 100 -129 43 -24 52 -25 225 -25
167 0 183 2 222 22 53 29 88 75 103 134 8 33 10 200 7 595 -4 547 -4 549 -30
664 -25 112 -64 236 -86 278 -10 19 -8 22 26 27 85 14 132 45 166 108 18 35
22 58 22 147 0 119 -14 157 -75 197 -44 31 -93 29 -215 -6 -55 -16 -103 -26
-106 -22 -3 3 -53 120 -110 260 -115 283 -139 323 -239 389 -113 76 -48 72
-1154 72 -941 -1 -994 -2 -1043 -19z m1975 -165 c55 -29 96 -65 116 -105 24
-46 298 -712 312 -759 11 -37 11 -49 0 -77 -8 -18 -25 -39 -38 -47 -19 -11
-256 -14 -1278 -16 -690 -2 -1275 0 -1299 3 -58 9 -101 50 -101 97 1 50 309
793 350 841 18 22 56 50 84 63 l51 24 878 0 878 0 47 -24z m-1637 -1445 c23
-18 24 -25 27 -171 4 -168 1 -191 -28 -220 -19 -19 -35 -20 -335 -20 l-316 0
-24 25 c-25 24 -25 27 -25 190 0 163 0 166 25 190 l24 25 314 0 c295 0 316 -1
338 -19z m2094 -6 c25 -24 25 -27 25 -190 0 -163 0 -166 -25 -190 l-24 -25
-316 0 -316 0 -24 25 c-25 24 -25 27 -25 190 0 163 0 166 25 190 l24 25 316 0
316 0 24 -25z"/>
</g>
</svg>
