<?xml version="1.0" standalone="no"?>
<!DOCTYPE svg PUBLIC "-//W3C//DTD SVG 20010904//EN"
 "http://www.w3.org/TR/2001/REC-SVG-20010904/DTD/svg10.dtd">
<svg version="1.0" xmlns="http://www.w3.org/2000/svg"
 width="30px" height="30px" viewBox="0 0 512.000000 512.000000"
 preserveAspectRatio="xMidYMid meet">

<g transform="translate(0.000000,512.000000) scale(0.100000,-0.100000)"
fill="#494681" stroke="none">
<path d="M2315 5109 c-390 -36 -799 -171 -1119 -371 -316 -197 -617 -498 -814
-814 -424 -680 -500 -1580 -197 -2334 131 -327 311 -598 564 -850 595 -594
1436 -849 2291 -695 512 92 965 329 1336 699 506 507 766 1179 741 1916 -16
451 -101 795 -284 1152 l-65 126 30 64 c42 89 57 159 56 263 -1 160 -61 301
-174 415 -114 113 -255 173 -415 174 -102 1 -172 -14 -264 -56 l-65 -28 -145
74 c-300 152 -596 233 -976 265 -138 12 -369 12 -500 0z m485 -400 c297 -26
540 -90 776 -204 l112 -54 -15 -63 c-21 -87 -12 -242 17 -327 l23 -63 -447
-447 -447 -447 -72 24 c-215 72 -444 17 -607 -147 -87 -87 -131 -164 -160
-277 -36 -141 -18 -294 52 -427 42 -81 164 -203 245 -245 133 -70 286 -88 427
-52 113 29 190 73 277 160 164 163 219 392 147 607 l-24 72 447 447 447 447
63 -23 c85 -29 240 -38 327 -17 l63 15 54 -112 c259 -537 286 -1248 70 -1808
-262 -679 -858 -1181 -1570 -1322 -656 -130 -1313 28 -1820 437 -102 83 -263
249 -344 355 -495 654 -581 1556 -215 2291 119 240 241 408 425 586 459 444
1079 655 1749 594z m1551 -274 c73 -38 121 -144 100 -222 -27 -101 -105 -157
-206 -151 -105 6 -177 77 -183 182 -6 98 40 167 134 201 43 16 112 12 155 -10z
m-1681 -1709 c59 -39 85 -89 85 -166 0 -78 -26 -127 -88 -168 -56 -37 -153
-39 -210 -3 -76 47 -111 140 -88 229 14 51 75 117 123 131 53 16 135 6 178
-23z"/>
</g>
</svg>
