<?xml version="1.0" standalone="no"?>
<!DOCTYPE svg PUBLIC "-//W3C//DTD SVG 20010904//EN"
 "http://www.w3.org/TR/2001/REC-SVG-20010904/DTD/svg10.dtd">
<svg version="1.0" xmlns="http://www.w3.org/2000/svg"
 width="30px" height="30px" viewBox="0 0 512.000000 512.000000"
 preserveAspectRatio="xMidYMid meet">

<g transform="translate(0.000000,512.000000) scale(0.100000,-0.100000)"
fill="#62DDF5" stroke="none">
<path d="M1920 4905 l0 -215 215 0 215 0 0 -106 0 -106 44 6 c58 9 262 9 332
0 l54 -6 0 106 0 106 210 0 210 0 0 215 0 215 -640 0 -640 0 0 -215z"/>
<path d="M3845 4480 l-150 -150 85 -85 85 -85 -95 -95 -95 -95 -155 78 c-85
42 -206 94 -268 115 -881 296 -1839 11 -2382 -708 -213 -282 -353 -605 -415
-960 -22 -124 -31 -433 -16 -574 87 -832 649 -1534 1444 -1807 417 -142 849
-150 1287 -22 476 139 905 465 1169 890 171 274 269 525 328 838 25 135 25
553 0 690 -56 301 -164 574 -322 810 -84 126 -144 199 -254 312 l-76 78 75 75
75 75 85 -85 85 -85 150 150 150 150 -320 320 -320 320 -150 -150z m-1285
-1580 l0 -750 750 0 749 0 -5 -67 c-9 -117 -25 -225 -46 -308 -108 -430 -418
-800 -823 -982 -491 -221 -1061 -166 -1500 145 -101 72 -263 234 -337 338
-184 257 -277 554 -278 879 -1 797 612 1442 1415 1488 28 2 56 4 63 5 9 2 12
-154 12 -748z"/>
</g>
</svg>
