<?xml version="1.0" standalone="no"?>
<!DOCTYPE svg PUBLIC "-//W3C//DTD SVG 20010904//EN"
 "http://www.w3.org/TR/2001/REC-SVG-20010904/DTD/svg10.dtd">
<svg version="1.0" xmlns="http://www.w3.org/2000/svg"
 width="30px" height="30px" viewBox="0 0 512.000000 512.000000"
 preserveAspectRatio="xMidYMid meet">

<g transform="translate(0.000000,512.000000) scale(0.100000,-0.100000)"
fill="#000" stroke="none">
<path d="M3963 4625 c-170 -46 -304 -181 -348 -350 -13 -52 -15 -260 -15
-1715 0 -1435 2 -1663 15 -1713 47 -179 198 -323 374 -357 69 -13 512 -13 582
0 182 34 344 196 379 379 14 74 14 3308 0 3382 -34 176 -177 327 -355 374 -81
21 -554 21 -632 0z"/>
<path d="M2238 3735 c-120 -33 -240 -127 -296 -233 -65 -122 -62 -54 -62
-1387 0 -1041 2 -1219 15 -1268 47 -179 198 -323 374 -357 69 -13 512 -13 582
0 182 34 344 196 379 379 6 35 10 480 10 1255 0 1323 3 1256 -62 1378 -36 69
-135 165 -202 197 -94 46 -135 51 -421 50 -187 -1 -284 -5 -317 -14z"/>
<path d="M488 2837 c-163 -56 -282 -190 -317 -355 -7 -36 -11 -293 -11 -815 0
-644 2 -772 15 -820 47 -179 198 -323 374 -357 69 -13 512 -13 582 0 184 34
345 197 379 382 7 36 10 328 8 834 -3 774 -3 779 -25 837 -49 129 -155 238
-280 288 -56 23 -70 24 -358 26 -291 3 -302 2 -367 -20z"/>
</g>
</svg>
